HIERARCHY
ROOT Hips
{
	OFFSET -0.001795 -0.223333 0.028219
	CHANNELS 6 Xposition Yposition Zposition Zrotation Yrotation Xrotation 
	JOINT LeftUpLeg
	{
		OFFSET 0.069520 -0.091406 -0.006815
		CHANNELS 3 Zrotation Yrotation Xrotation
		JOINT LeftLeg
		{
			OFFSET 0.034277 -0.375199 -0.004496
			CHANNELS 3 Zrotation Yrotation Xrotation
			JOINT LeftFoot
			{
				OFFSET -0.013596 -0.397961 -0.043693
				CHANNELS 3 Zrotation Yrotation Xrotation
				JOINT LeftToe
				{
					OFFSET 0.026358 -0.055791 0.119288
					CHANNELS 3 Zrotation Yrotation Xrotation
					End Site
					{
						OFFSET 0.000000 0.000000 0.000000
					}
				}
			}
		}
	}
	JOINT RightUpLeg
	{
		OFFSET -0.067670 -0.090522 -0.004320
		CHANNELS 3 Zrotation Yrotation Xrotation
		JOINT RightLeg
		{
			OFFSET -0.038290 -0.382569 -0.008850
			CHANNELS 3 Zrotation Yrotation Xrotation
			JOINT RightFoot
			{
				OFFSET 0.015774 -0.398415 -0.042312
				CHANNELS 3 Zrotation Yrotation Xrotation
				JOINT RightToe
				{
					OFFSET -0.025372 -0.048144 0.123348
					CHANNELS 3 Zrotation Yrotation Xrotation
					End Site
					{
						OFFSET 0.000000 0.000000 0.000000
					}
				}
			}
		}
	}
	JOINT Spine
	{
		OFFSET -0.002533 0.108963 -0.026696
		CHANNELS 3 Zrotation Yrotation Xrotation
		JOINT Spine1
		{
			OFFSET 0.005487 0.135180 0.001092
			CHANNELS 3 Zrotation Yrotation Xrotation
			JOINT Spine2
			{
				OFFSET 0.001457 0.052922 0.025425
				CHANNELS 3 Zrotation Yrotation Xrotation
				JOINT Neck
				{
					OFFSET -0.002778 0.213870 -0.042857
					CHANNELS 3 Zrotation Yrotation Xrotation
					JOINT Head
					{
						OFFSET 0.005152 0.064970 0.051349
						CHANNELS 3 Zrotation Yrotation Xrotation
						End Site
						{
							OFFSET 0.000000 0.000000 0.000000
						}
					}
				}
				JOINT LeftShoulder
				{
					OFFSET 0.078845 0.121749 -0.034090
					CHANNELS 3 Zrotation Yrotation Xrotation
					JOINT LeftArm
					{
						OFFSET 0.090977 0.030469 -0.008868
						CHANNELS 3 Zrotation Yrotation Xrotation
						JOINT LeftForeArm
						{
							OFFSET 0.259612 -0.012772 -0.027456
							CHANNELS 3 Zrotation Yrotation Xrotation
							JOINT LeftHand
							{
								OFFSET 0.249234 0.008986 -0.001171
								CHANNELS 3 Zrotation Yrotation Xrotation
								End Site
								{
									OFFSET 0.000000 0.000000 0.000000
								}
							}
						}
					}
				}
				JOINT RightShoulder
				{
					OFFSET -0.081759 0.118833 -0.038615
					CHANNELS 3 Zrotation Yrotation Xrotation
					JOINT RightArm
					{
						OFFSET -0.096012 0.032551 -0.009143
						CHANNELS 3 Zrotation Yrotation Xrotation
						JOINT RightForeArm
						{
							OFFSET -0.253742 -0.013329 -0.021401
							CHANNELS 3 Zrotation Yrotation Xrotation
							JOINT RightHand
							{
								OFFSET -0.255298 0.007772 -0.005559
								CHANNELS 3 Zrotation Yrotation Xrotation
								End Site
								{
									OFFSET 0.000000 0.000000 0.000000
								}
							}
						}
					}
				}
			}
		}
	}
}
MOTION
Frames: 13
Frame Time: 0.050000
-0.047745 0.523051 -0.043448 -6.101396 -12.712642 9.814174 10.196331 0.011028 -6.374985 6.667784 -1.920108 94.759046 -13.806903 -13.179612 19.670459 0.000000 0.000000 0.000000 1.576524 2.911127 -22.421562 9.947388 2.888216 108.993036 1.602734 -1.987839 14.009991 0.000000 0.000000 0.000000 7.919637 -0.300101 0.367250 -2.077937 0.875706 -3.753389 -2.772794 5.232076 6.847385 8.700534 -6.724427 -2.151859 0.000000 0.000000 0.000000 -23.063181 4.269422 -4.278881 -45.706903 -0.773658 -5.328149 -10.707622 -21.507735 2.927531 0.000000 0.000000 0.000000 25.318072 -13.623284 -11.160576 46.037536 -10.447746 -8.117798 -2.141817 26.089498 0.360931 0.000000 0.000000 0.000000 
-0.048119 0.521489 -0.043333 -5.624968 -12.876155 8.386365 9.689089 0.023503 -7.610899 6.870168 -2.426731 97.582401 -14.478059 -13.459893 20.666016 0.000000 0.000000 0.000000 1.900337 3.000879 -22.578776 9.521618 3.898108 111.612878 3.583597 1.714439 14.210037 0.000000 0.000000 0.000000 7.683814 -0.365371 1.373587 -2.074966 0.871158 -3.822870 -2.277014 5.283619 7.045907 8.103998 -6.266400 -2.158946 0.000000 0.000000 0.000000 -23.171715 3.573614 -3.850770 -46.321994 -1.831742 -5.054597 -10.340438 -20.601698 2.732396 0.000000 0.000000 0.000000 25.083371 -12.907878 -10.674047 47.830543 -9.912895 -8.320547 -1.783112 24.728860 0.417956 0.000000 0.000000 0.000000 
-0.048662 0.521241 -0.043436 -5.119128 -12.170089 7.843529 9.428808 0.000057 -8.875204 6.919715 -3.350570 98.947797 -15.353629 -13.916497 21.935565 0.000000 0.000000 0.000000 2.002747 2.966003 -22.391701 9.089490 3.989246 112.646619 4.623407 3.361573 14.842808 0.000000 0.000000 0.000000 7.507298 -0.347770 1.346639 -2.118308 0.898820 -3.744810 -2.120201 5.709771 7.357317 8.342002 -6.247861 -3.275150 0.000000 0.000000 0.000000 -22.322043 3.164381 -3.717063 -46.837546 -2.545617 -4.816015 -11.642257 -20.918454 2.989615 0.000000 0.000000 0.000000 24.994613 -13.129102 -10.550497 49.006760 -9.962715 -8.643525 -1.845518 22.872846 0.425417 0.000000 0.000000 0.000000 
-0.049319 0.520429 -0.043524 -4.629581 -11.808782 6.957942 9.506701 0.026412 -9.945580 6.596110 -3.513617 100.476982 -15.742456 -13.235834 23.773943 0.000000 0.000000 0.000000 2.068358 2.941260 -22.219934 8.905670 3.958834 113.767136 5.013022 3.795087 15.490714 0.000000 0.000000 0.000000 7.273432 -0.377354 1.886612 -1.944768 0.826728 -3.776298 -2.218670 6.496164 7.603644 8.936452 -6.526876 -4.148474 0.000000 0.000000 0.000000 -21.690440 2.802551 -3.703274 -47.342262 -3.159963 -4.596248 -12.333861 -21.536966 3.171790 0.000000 0.000000 0.000000 24.296071 -13.124294 -10.064078 49.983699 -9.659093 -8.801573 -1.517519 22.049776 0.523648 0.000000 0.000000 0.000000 
-0.050035 0.520139 -0.043199 -4.169947 -11.173680 6.182839 9.389474 0.023475 -11.291059 6.421327 -4.168605 102.012246 -16.318920 -13.326956 24.887595 0.000000 0.000000 0.000000 2.038944 2.846811 -21.765329 8.246508 4.579177 114.094476 5.709444 4.870862 15.829108 0.000000 0.000000 0.000000 7.170568 -0.407356 2.362054 -2.280794 0.971786 -4.081571 -2.041788 7.203302 7.965274 9.302455 -6.585540 -5.136291 0.000000 0.000000 0.000000 -21.041366 2.215660 -3.549823 -47.532092 -3.289735 -4.533395 -12.979607 -22.608270 3.417703 0.000000 0.000000 0.000000 23.614249 -13.495597 -9.829066 50.458801 -9.374367 -8.852280 -1.056287 20.876800 0.620391 0.000000 0.000000 0.000000 
-0.050725 0.519760 -0.042293 -3.857548 -10.449718 5.577679 9.546704 0.045331 -12.445552 6.283049 -4.911367 103.085296 -16.383778 -12.779339 25.894053 0.000000 0.000000 0.000000 1.834277 2.782943 -21.651699 7.979164 4.285556 114.296245 6.036678 4.874603 16.972162 0.000000 0.000000 0.000000 7.166306 -0.390602 2.311437 -2.235925 0.964105 -3.925326 -2.098116 7.756918 8.172626 9.465203 -6.697615 -5.078033 0.000000 0.000000 0.000000 -21.003584 2.037994 -3.702354 -47.804881 -3.728208 -4.357008 -13.084519 -23.626982 3.549965 0.000000 0.000000 0.000000 22.947143 -13.572974 -9.454059 50.726387 -9.360578 -8.952655 -0.828486 20.878004 0.703707 0.000000 0.000000 0.000000 
-0.051121 0.520551 -0.040908 -3.563618 -10.080549 5.195546 9.344806 0.025144 -13.246716 6.257160 -5.381872 103.681970 -16.973523 -13.329643 26.336090 0.000000 0.000000 0.000000 1.708860 2.720440 -21.424844 7.750851 4.327924 114.115106 5.869549 4.758558 16.527593 0.000000 0.000000 0.000000 7.208071 -0.369056 2.158936 -2.680834 1.159589 -4.004839 -2.028218 8.215677 8.468161 9.554642 -6.656778 -5.509402 0.000000 0.000000 0.000000 -20.621394 2.066157 -3.818333 -47.733485 -3.274042 -4.515990 -13.714632 -24.648475 3.810746 0.000000 0.000000 0.000000 22.271378 -13.634205 -9.168711 50.848639 -9.186272 -8.946380 -0.629911 20.948565 0.770521 0.000000 0.000000 0.000000 
-0.051068 0.520777 -0.039435 -3.354678 -9.672782 4.771502 9.037492 -0.013975 -13.941789 6.210181 -5.904752 104.485035 -16.999791 -13.205444 26.595231 0.000000 0.000000 0.000000 1.304064 2.638441 -21.329851 7.728114 3.890717 114.204638 5.793148 4.515756 16.703055 0.000000 0.000000 0.000000 7.242742 -0.363822 2.179603 -3.012421 1.302582 -4.230504 -1.821589 8.534495 8.389626 9.253558 -6.175167 -6.524701 0.000000 0.000000 0.000000 -20.148498 2.134033 -3.908593 -48.079687 -2.524988 -4.813855 -13.480676 -25.416210 3.846858 0.000000 0.000000 0.000000 21.340210 -13.672085 -8.869042 50.693558 -9.613362 -9.076083 -0.660594 22.235988 0.842480 0.000000 0.000000 0.000000 
-0.050487 0.521036 -0.037965 -3.238302 -9.878389 4.723043 8.621780 -0.053953 -14.631105 6.595105 -6.404436 104.933518 -18.184158 -15.054298 26.296131 0.000000 0.000000 0.000000 0.830148 2.612792 -21.569454 7.772925 4.027023 114.493732 5.562293 4.652466 15.576734 0.000000 0.000000 0.000000 7.432889 -0.330262 1.829291 -2.903427 1.248147 -4.408364 -2.213426 9.309996 8.276971 9.159222 -5.875632 -7.358056 0.000000 0.000000 0.000000 -20.258192 2.928810 -4.545064 -48.068985 -1.635520 -5.104865 -13.095040 -25.440881 3.715394 0.000000 0.000000 0.000000 20.774011 -13.449595 -8.461073 50.516356 -9.438484 -8.973483 -0.860112 23.539133 0.900214 0.000000 0.000000 0.000000 
-0.049699 0.520666 -0.036628 -2.996818 -9.993271 4.549557 8.008719 -0.132851 -14.848446 6.938762 -6.973836 105.540880 -19.008730 -16.843812 25.418356 0.000000 0.000000 0.000000 0.070160 2.571190 -22.020140 8.003535 3.638272 115.090596 5.721490 5.255013 14.978747 0.000000 0.000000 0.000000 7.638504 -0.327369 1.797644 -3.169756 1.344223 -5.029800 -2.172655 9.696228 8.472655 9.188272 -5.706491 -8.171506 0.000000 0.000000 0.000000 -19.756910 3.004470 -4.554566 -48.698615 -0.566996 -5.611141 -11.909951 -25.666094 3.465451 0.000000 0.000000 0.000000 19.938985 -13.215192 -8.100022 50.753506 -9.191881 -8.923439 -1.316891 24.828494 0.889150 0.000000 0.000000 0.000000 
-0.048990 0.519873 -0.035392 -3.019743 -10.211754 4.393112 7.566383 -0.183933 -14.943825 7.405295 -7.606985 105.946581 -19.240285 -18.395199 23.778720 0.000000 0.000000 0.000000 -0.400847 2.530401 -22.162196 8.044469 3.789387 115.577630 5.302943 5.016957 13.911808 0.000000 0.000000 0.000000 7.885697 -0.303548 1.578321 -3.180523 1.337828 -5.309234 -2.041982 10.004749 8.781806 9.157025 -5.485234 -9.087830 0.000000 0.000000 0.000000 -19.944091 3.775290 -5.028285 -48.787254 -0.025646 -5.855847 -11.436812 -26.046642 3.405469 0.000000 0.000000 0.000000 19.577744 -12.899662 -7.815593 50.769149 -8.786650 -8.797816 -1.305896 25.853508 0.950510 0.000000 0.000000 0.000000 
-0.048600 0.519528 -0.034256 -3.026649 -10.602930 4.506586 7.181497 -0.225605 -15.255981 8.200997 -8.606665 106.455289 -20.053308 -21.206165 21.786959 0.000000 0.000000 0.000000 -0.879714 2.568193 -22.841622 8.254423 3.770680 116.261355 4.678153 4.898422 11.764679 0.000000 0.000000 0.000000 8.212389 -0.252960 1.069358 -3.370871 1.396906 -5.832163 -1.986319 10.677422 9.101298 9.494538 -5.438075 -10.330725 0.000000 0.000000 0.000000 -19.795130 3.977151 -5.193519 -48.398967 0.758550 -6.113536 -11.767313 -27.052815 3.593783 0.000000 0.000000 0.000000 19.448675 -12.253281 -7.337878 51.694994 -7.951522 -8.669041 -2.169558 26.555204 0.833498 0.000000 0.000000 0.000000 
-0.048371 0.520263 -0.033295 -3.116813 -10.498101 4.257014 7.113197 -0.233231 -15.578152 8.438792 -9.236168 106.851616 -20.302072 -21.569258 21.821969 0.000000 0.000000 0.000000 -1.110104 2.598477 -23.335091 8.209230 3.717920 116.917439 4.282498 4.384355 11.220713 0.000000 0.000000 0.000000 8.510898 -0.276452 1.296797 -3.231358 1.327817 -6.274098 -1.973112 11.229115 9.001142 9.789871 -5.230688 -12.007338 0.000000 0.000000 0.000000 -19.492200 4.236405 -5.411977 -47.667695 1.343884 -6.198015 -13.924792 -29.556531 4.440923 0.000000 0.000000 0.000000 19.990752 -12.193839 -7.266194 52.174890 -7.209153 -8.471339 -2.348339 27.190940 0.865818 0.000000 0.000000 0.000000 
